<svg preserveAspectRatio="none" width="100%" height="100%" overflow="visible" style="display: block;" viewBox="0 0 89.8726 18.5523" fill="none" xmlns="http://www.w3.org/2000/svg">
<g id="Vector">
<path d="M81.7029 18.5523C81.4709 18.5523 81.3549 18.4363 81.3549 18.2044V12.7765L77.625 9.06043C77.56 8.98621 77.5183 8.92126 77.4997 8.86559C77.4904 8.80064 77.4858 8.72641 77.4858 8.6429V0.347943C77.4858 0.115981 77.6018 0 77.8337 0H81.7725C82.0044 0 82.1204 0.115981 82.1204 0.347943V8.76816H85.238V0.347943C85.238 0.115981 85.3539 0 85.5859 0H89.5246C89.7566 0 89.8726 0.115981 89.8726 0.347943V8.6429C89.8726 8.72641 89.8679 8.80064 89.8587 8.86559C89.8494 8.92126 89.8076 8.98621 89.7334 9.06043L86.0174 12.7765V18.2044C86.0174 18.4363 85.9014 18.5523 85.6694 18.5523H81.7029Z" fill="var(--fill-0, #1F6F43)"/>
<path d="M71.5603 18.5523C71.3469 18.5523 71.1614 18.492 71.0036 18.3714L68.735 16.2976L66.4386 13.3053C66.3365 13.1754 66.2716 13.0966 66.2438 13.0687C66.2159 13.0316 66.202 12.9481 66.202 12.8182V5.72018C66.202 5.59028 66.2159 5.50678 66.2438 5.46966C66.2809 5.43255 66.3458 5.35368 66.4386 5.23306L68.568 2.47735L71.0036 0.18093C71.1057 0.0974236 71.1846 0.0463921 71.2402 0.0278354C71.3052 0.00927869 71.4119 0 71.5603 0H74.998C75.23 0 75.346 0.115981 75.346 0.347943V2.57478C75.346 2.64901 75.3367 2.72787 75.3181 2.81138C75.3088 2.88561 75.2624 2.95056 75.1789 3.00623L72.5624 4.80161L70.8505 7.00061V11.5517L72.5902 13.7507L75.1789 15.5322C75.2532 15.5786 75.2996 15.6342 75.3181 15.6992C75.3367 15.7641 75.346 15.8337 75.346 15.908V18.2044C75.346 18.4363 75.23 18.5523 74.998 18.5523H71.5603Z" fill="var(--fill-0, #1F6F43)"/>
<path d="M51.4792 18.5523C51.2473 18.5523 51.1313 18.4363 51.1313 18.2044V0.347943C51.1313 0.115981 51.2473 0 51.4792 0H59.3845C59.6072 0 59.7927 0.0742286 59.9412 0.222685L62.7247 3.00623C62.8825 3.16396 62.9613 3.34953 62.9613 3.56294V18.2044C62.9613 18.4363 62.8454 18.5523 62.6134 18.5523H58.6747C58.4427 18.5523 58.3267 18.4363 58.3267 18.2044V3.70211H55.7659V18.2044C55.7659 18.4363 55.6499 18.5523 55.4179 18.5523H51.4792Z" fill="var(--fill-0, #1F6F43)"/>
<path d="M35.8331 18.5523C35.6012 18.5523 35.4852 18.4363 35.4852 18.2044V5.30265C35.4852 5.18203 35.5316 5.04285 35.6243 4.88512L38.9228 0.208766C39.0249 0.0695888 39.1734 0 39.3682 0H43.975C44.1791 0 44.3276 0.0695888 44.4203 0.208766L47.7328 4.88512C47.8255 5.01502 47.8719 5.15419 47.8719 5.30265V18.2044C47.8719 18.4363 47.756 18.5523 47.524 18.5523H43.5853C43.3533 18.5523 43.2373 18.4363 43.2373 18.2044V12.2893H40.1337V18.2044C40.1337 18.4363 40.0177 18.5523 39.7857 18.5523H35.8331ZM41.6786 9.29703C42.5322 9.29703 43.1074 9.11147 43.4043 8.74033C43.7105 8.35991 43.8636 7.64083 43.8636 6.58308C43.8636 5.52533 43.7105 4.81089 43.4043 4.43975C43.1074 4.05933 42.5322 3.86912 41.6786 3.86912C40.8342 3.86912 40.2589 4.05933 39.9528 4.43975C39.6558 4.81089 39.5074 5.52533 39.5074 6.58308C39.5074 7.64083 39.6558 8.35991 39.9528 8.74033C40.2589 9.11147 40.8342 9.29703 41.6786 9.29703Z" fill="var(--fill-0, #1F6F43)"/>
<path d="M20.7624 18.5523C20.5304 18.5523 20.4145 18.4363 20.4145 18.2044V0.347943C20.4145 0.115981 20.5304 0 20.7624 0H28.6677C28.8904 0 29.0759 0.0742286 29.2244 0.222685L32.0079 3.00623C32.1657 3.16396 32.2445 3.34953 32.2445 3.56294V18.2044C32.2445 18.4363 32.1285 18.5523 31.8966 18.5523H27.9579C27.7259 18.5523 27.6099 18.4363 27.6099 18.2044V3.70211H25.0491V18.2044C25.0491 18.4363 24.9331 18.5523 24.7011 18.5523H20.7624Z" fill="var(--fill-0, #1F6F43)"/>
<path d="M12.7978 18.5523C12.5658 18.5523 12.4498 18.4363 12.4498 18.2044V0.347943C12.4498 0.115981 12.5658 0 12.7978 0H16.7365C16.9685 0 17.0844 0.115981 17.0844 0.347943V18.2044C17.0844 18.4363 16.9685 18.5523 16.7365 18.5523H12.7978Z" fill="var(--fill-0, #1F6F43)"/>
<path d="M0.347943 18.5523C0.115981 18.5523 0 18.4363 0 18.2044V0.347943C0 0.115981 0.115981 0 0.347943 0H9.88158C10.1135 0 10.2295 0.115981 10.2295 0.347943V3.35417C10.2295 3.58613 10.1135 3.70211 9.88158 3.70211H4.6346V8.35063H9.18569C9.41766 8.35063 9.53364 8.46661 9.53364 8.69857V11.7048C9.53364 11.9368 9.41766 12.0527 9.18569 12.0527H4.6346V18.2044C4.6346 18.4363 4.51862 18.5523 4.28666 18.5523H0.347943Z" fill="var(--fill-0, #1F6F43)"/>
</g>
</svg>
